<svg width="320" height="60" viewBox="0 0 320 60" fill="none" xmlns="http://www.w3.org/2000/svg">
<path d="M21.36 15.8V22.04H10.08V27H18.4V32.96H10.08V44H2.24V15.8H21.36ZM32.5019 22.08V26.68H41.5019V32.64H32.5019V37.72H42.7019V44H24.6619V15.8H42.7019V22.08H32.5019ZM54.4159 22.08V26.68H63.4159V32.64H54.4159V37.72H64.6159V44H46.5759V15.8H64.6159V22.08H54.4159ZM79.65 15.8C82.61 15.8 85.1967 16.4 87.41 17.6C89.65 18.7733 91.37 20.4267 92.57 22.56C93.77 24.6933 94.37 27.1333 94.37 29.88C94.37 32.6 93.7567 35.0267 92.53 37.16C91.33 39.2933 89.61 40.9733 87.37 42.2C85.1567 43.4 82.5833 44 79.65 44H68.49V15.8H79.65ZM79.05 37.08C81.3433 37.08 83.1433 36.4533 84.45 35.2C85.7567 33.9467 86.41 32.1733 86.41 29.88C86.41 27.56 85.7567 25.7733 84.45 24.52C83.1433 23.24 81.3433 22.6 79.05 22.6H76.33V37.08H79.05Z" fill="black"/>
<rect x="248" y="41" width="70" height="3" fill="#FCEA2B"/>
<rect x="179" y="41" width="74" height="3" fill="#006101"/>
<rect x="106" y="41" width="71.66" height="3" fill="#CB2E26"/>
<path d="M127.52 25.2C127.52 26.9067 127.12 28.4667 126.32 29.88C125.547 31.2667 124.36 32.3867 122.76 33.24C121.187 34.0667 119.253 34.48 116.96 34.48H113.08V44H105.24V15.8H116.96C119.227 15.8 121.147 16.2 122.72 17C124.32 17.8 125.52 18.9067 126.32 20.32C127.12 21.7333 127.52 23.36 127.52 25.2ZM116.2 28.24C118.413 28.24 119.52 27.2267 119.52 25.2C119.52 23.1467 118.413 22.12 116.2 22.12H113.08V28.24H116.2ZM144.19 44.28C141.55 44.28 139.123 43.6667 136.91 42.44C134.696 41.1867 132.936 39.4667 131.63 37.28C130.35 35.0667 129.71 32.5733 129.71 29.8C129.71 27.0267 130.35 24.5467 131.63 22.36C132.936 20.1467 134.696 18.4267 136.91 17.2C139.123 15.9733 141.55 15.36 144.19 15.36C146.856 15.36 149.283 15.9733 151.47 17.2C153.683 18.4267 155.43 20.1467 156.71 22.36C157.99 24.5467 158.63 27.0267 158.63 29.8C158.63 32.5733 157.99 35.0667 156.71 37.28C155.43 39.4667 153.683 41.1867 151.47 42.44C149.256 43.6667 146.83 44.28 144.19 44.28ZM144.19 37C146.19 37 147.763 36.3467 148.91 35.04C150.083 33.7333 150.67 31.9867 150.67 29.8C150.67 27.56 150.083 25.8 148.91 24.52C147.763 23.2133 146.19 22.56 144.19 22.56C142.163 22.56 140.576 23.2133 139.43 24.52C138.283 25.8 137.71 27.56 137.71 29.8C137.71 32.0133 138.283 33.7733 139.43 35.08C140.576 36.36 142.163 37 144.19 37ZM176.434 44L170.834 33.6H169.994V44H162.154V15.8H174.514C176.781 15.8 178.701 16.2 180.274 17C181.847 17.7733 183.034 18.8533 183.834 20.24C184.634 21.6 185.034 23.1333 185.034 24.84C185.034 26.76 184.501 28.4533 183.434 29.92C182.394 31.36 180.861 32.3867 178.834 33L185.194 44H176.434ZM169.994 28.24H173.874C174.941 28.24 175.741 27.9867 176.274 27.48C176.807 26.9733 177.074 26.24 177.074 25.28C177.074 24.3733 176.794 23.6667 176.234 23.16C175.701 22.6267 174.914 22.36 173.874 22.36H169.994V28.24ZM209.839 15.8V22.04H202.319V44H194.479V22.04H187.039V15.8H209.839ZM220.42 15.8V32.16C220.42 33.68 220.767 34.8533 221.46 35.68C222.18 36.5067 223.26 36.92 224.7 36.92C226.14 36.92 227.22 36.5067 227.94 35.68C228.687 34.8267 229.06 33.6533 229.06 32.16V15.8H236.9V32.16C236.9 34.7467 236.353 36.96 235.26 38.8C234.167 40.6133 232.673 41.9867 230.78 42.92C228.913 43.8267 226.833 44.28 224.54 44.28C222.247 44.28 220.193 43.8267 218.38 42.92C216.593 41.9867 215.18 40.6133 214.14 38.8C213.127 36.9867 212.62 34.7733 212.62 32.16V15.8H220.42ZM259.217 25.08C258.763 24.3333 258.137 23.76 257.337 23.36C256.563 22.96 255.643 22.76 254.577 22.76C252.603 22.76 251.043 23.4 249.897 24.68C248.777 25.96 248.217 27.68 248.217 29.84C248.217 32.2667 248.817 34.12 250.017 35.4C251.243 36.6533 253.017 37.28 255.337 37.28C258.083 37.28 260.043 36.04 261.217 33.56H253.337V27.92H267.977V35.52C267.363 37.0133 266.457 38.4133 265.257 39.72C264.083 41.0267 262.59 42.1067 260.777 42.96C258.963 43.7867 256.897 44.2 254.577 44.2C251.75 44.2 249.243 43.6 247.057 42.4C244.897 41.1733 243.217 39.48 242.017 37.32C240.843 35.1333 240.257 32.64 240.257 29.84C240.257 27.0667 240.843 24.6 242.017 22.44C243.217 20.2533 244.897 18.56 247.057 17.36C249.217 16.1333 251.71 15.52 254.537 15.52C258.083 15.52 261.017 16.3733 263.337 18.08C265.657 19.7867 267.097 22.12 267.657 25.08H259.217ZM289.33 39.4H279.33L277.81 44H269.57L279.85 15.8H288.89L299.13 44H290.85L289.33 39.4ZM287.37 33.4L284.33 24.28L281.33 33.4H287.37ZM309.525 38H318.285V44H301.685V15.8H309.525V38Z" fill="#131313"/>
</svg>
